<svg xmlns="http://www.w3.org/2000/svg" style="display:none">
  <symbol id="icon-logo" viewBox="0 0 1024 1024">
    <g class="logo-gear">
      <path d="M 462 127 L 451 133 L 435 200 L 395 212 L 354 232 L 309 203 L 299 202 L 272 224 L 211 288 L 208 300 L 239 345 L 218 388 L 207 428 L 143 444 L 139 450 L 138 561 L 145 572 L 207 584 L 220 629 L 241 668 L 210 713 L 209 726 L 263 783 L 293 809 L 300 812 L 308 811 L 353 782 L 389 801 L 434 815 L 449 876 L 456 884 L 564 885 L 573 878 L 588 815 L 631 802 L 669 782 L 718 812 L 726 811 L 767 776 L 811 730 L 814 717 L 781 669 L 801 633 L 815 584 L 874 573 L 883 565 L 884 452 L 875 442 L 815 428 L 804 387 L 784 346 L 812 305 L 814 293 L 790 264 L 731 207 L 722 202 L 715 202 L 669 232 L 638 216 L 587 199 L 573 135 L 568 129 Z" fill="#1F2937"/>
    </g>
    <path d="M 303 601 L 503 742 L 502 612 Z M 719 599 L 520 613 L 520 742 Z M 612 423 L 524 599 L 719 587 Z M 409 423 L 304 588 L 498 599 Z M 421 411 L 511 589 L 600 411 Z M 621 409 L 729 577 L 729 384 Z M 399 409 L 292 384 L 292 577 Z M 427 399 L 594 398 L 510 267 Z M 496 265 L 303 372 L 410 397 Z M 524 263 L 611 397 L 720 372 Z" fill="#F59E0B"/>
  </symbol>
  <symbol id="icon-share-2" viewBox="0 0 24 24" fill="none" stroke="currentColor" stroke-width="2" stroke-linecap="round" stroke-linejoin="round">
    <circle cx="18" cy="5" r="3" />
    <circle cx="6" cy="12" r="3" />
    <circle cx="18" cy="19" r="3" />
    <line x1="8.59" x2="15.42" y1="13.51" y2="17.49" />
    <line x1="15.41" x2="8.59" y1="6.51" y2="10.49" />
  </symbol>
  <symbol id="icon-check" viewBox="0 0 24 24" fill="none" stroke="currentColor" stroke-width="2" stroke-linecap="round" stroke-linejoin="round">
    <path d="M20 6 9 17l-5-5" />
  </symbol>
  <symbol id="icon-download" viewBox="0 0 24 24" fill="none" stroke="currentColor" stroke-width="2" stroke-linecap="round" stroke-linejoin="round">
    <path d="M12 15V3" />
    <path d="M21 15v4a2 2 0 0 1-2 2H5a2 2 0 0 1-2-2v-4" />
    <path d="m7 10 5 5 5-5" />
  </symbol>
  <symbol id="icon-upload" viewBox="0 0 24 24" fill="none" stroke="currentColor" stroke-width="2" stroke-linecap="round" stroke-linejoin="round">
    <path d="M12 3v12" />
    <path d="m17 8-5-5-5 5" />
    <path d="M21 15v4a2 2 0 0 1-2 2H5a2 2 0 0 1-2-2v-4" />
  </symbol>
  <symbol id="icon-copy" viewBox="0 0 24 24" fill="none" stroke="currentColor" stroke-width="2" stroke-linecap="round" stroke-linejoin="round">
    <rect width="14" height="14" x="8" y="8" rx="2" ry="2" />
    <path d="M4 16c-1.1 0-2-.9-2-2V4c0-1.1.9-2 2-2h10c1.1 0 2 .9 2 2" />
  </symbol>
  <symbol id="icon-refresh-cw" viewBox="0 0 24 24" fill="none" stroke="currentColor" stroke-width="2" stroke-linecap="round" stroke-linejoin="round">
    <path d="M3 12a9 9 0 0 1 9-9 9.75 9.75 0 0 1 6.74 2.74L21 8" />
    <path d="M21 3v5h-5" />
    <path d="M21 12a9 9 0 0 1-9 9 9.75 9.75 0 0 1-6.74-2.74L3 16" />
    <path d="M8 16H3v5" />
  </symbol>
  <symbol id="icon-rotate-ccw" viewBox="0 0 24 24" fill="none" stroke="currentColor" stroke-width="2" stroke-linecap="round" stroke-linejoin="round">
    <path d="M3 12a9 9 0 1 0 9-9 9.75 9.75 0 0 0-6.74 2.74L3 8" />
    <path d="M3 3v5h5" />
  </symbol>
  <symbol id="icon-dices" viewBox="0 0 24 24" fill="none" stroke="currentColor" stroke-width="2" stroke-linecap="round" stroke-linejoin="round">
    <rect width="12" height="12" x="2" y="10" rx="2" ry="2" />
    <path d="m17.92 14 3.5-3.5a2.24 2.24 0 0 0 0-3l-5-4.92a2.24 2.24 0 0 0-3 0L10 6" />
    <path d="M6 18h.01" />
    <path d="M10 14h.01" />
    <path d="M15 6h.01" />
    <path d="M18 9h.01" />
  </symbol>
  <symbol id="icon-arrow-up" viewBox="0 0 24 24" fill="none" stroke="currentColor" stroke-width="2" stroke-linecap="round" stroke-linejoin="round">
    <path d="m5 12 7-7 7 7" />
    <path d="M12 19V5" />
  </symbol>
  <symbol id="icon-arrow-left" viewBox="0 0 24 24" fill="none" stroke="currentColor" stroke-width="2" stroke-linecap="round" stroke-linejoin="round">
    <path d="m12 19-7-7 7-7"/><path d="M19 12H5"/>
  </symbol>
  <symbol id="icon-arrow-down-a-z" viewBox="0 0 24 24" fill="none" stroke="currentColor" stroke-width="2" stroke-linecap="round" stroke-linejoin="round">
    <path d="m3 16 4 4 4-4" />
    <path d="M7 20V4" />
    <path d="M20 8h-5" />
    <path d="M15 10V6.5a2.5 2.5 0 0 1 5 0V10" />
    <path d="M15 14h5l-5 6h5" />
  </symbol>
  <symbol id="icon-wand" viewBox="0 0 24 24" fill="none" stroke="currentColor" stroke-width="2" stroke-linecap="round" stroke-linejoin="round">
    <path d="M15 4V2" />
    <path d="M15 16v-2" />
    <path d="M8 9h2" />
    <path d="M20 9h2" />
    <path d="M17.8 11.8 19 13" />
    <path d="M15 9h.01" />
    <path d="M17.8 6.2 19 5" />
    <path d="m3 21 9-9" />
    <path d="M12.2 6.2 11 5" />
  </symbol>
  <symbol id="icon-minus" viewBox="0 0 24 24" fill="none" stroke="currentColor" stroke-width="2" stroke-linecap="round" stroke-linejoin="round">
    <path d="M5 12h14" />
  </symbol>
  <symbol id="icon-plus" viewBox="0 0 24 24" fill="none" stroke="currentColor" stroke-width="2" stroke-linecap="round" stroke-linejoin="round">
    <path d="M5 12h14" />
    <path d="M12 5v14" />
  </symbol>
  <symbol id="icon-x" viewBox="0 0 24 24" fill="none" stroke="currentColor" stroke-width="2" stroke-linecap="round" stroke-linejoin="round">
    <path d="M18 6 6 18" />
    <path d="m6 6 12 12" />
  </symbol>
  <symbol id="icon-chevron-down" viewBox="0 0 24 24" fill="none" stroke="currentColor" stroke-width="2" stroke-linecap="round" stroke-linejoin="round">
    <path d="m6 9 6 6 6-6" />
  </symbol>
  <symbol id="icon-info" viewBox="0 0 24 24" fill="none" stroke="currentColor" stroke-width="2" stroke-linecap="round" stroke-linejoin="round">
    <circle cx="12" cy="12" r="10" />
    <path d="M12 16v-4" />
    <path d="M12 8h.01" />
  </symbol>
  <symbol id="icon-globe" viewBox="0 0 24 24" fill="none" stroke="currentColor" stroke-width="2" stroke-linecap="round" stroke-linejoin="round">
    <circle cx="12" cy="12" r="10" />
    <path d="M12 2a14.5 14.5 0 0 0 0 20 14.5 14.5 0 0 0 0-20" />
    <path d="M2 12h20" />
  </symbol>
  <symbol id="icon-swords" viewBox="0 0 24 24" fill="none" stroke="currentColor" stroke-width="2" stroke-linecap="round" stroke-linejoin="round">
    <polyline points="14.5 17.5 3 6 3 3 6 3 17.5 14.5" />
    <line x1="13" x2="19" y1="19" y2="13" />
    <line x1="16" x2="20" y1="16" y2="20" />
    <line x1="19" x2="21" y1="21" y2="19" />
    <polyline points="14.5 6.5 18 3 21 3 21 6 17.5 9.5" />
    <line x1="5" x2="9" y1="14" y2="18" />
    <line x1="7" x2="4" y1="17" y2="20" />
    <line x1="3" x2="5" y1="19" y2="21" />
  </symbol>
  <symbol id="icon-circle-minus" viewBox="0 0 24 24" fill="none" stroke="currentColor" stroke-width="2" stroke-linecap="round" stroke-linejoin="round">
    <circle cx="12" cy="12" r="10" />
    <path d="M8 12h8" />
  </symbol>
  <symbol id="icon-circle-plus" viewBox="0 0 24 24" fill="none" stroke="currentColor" stroke-width="2" stroke-linecap="round" stroke-linejoin="round">
    <circle cx="12" cy="12" r="10" />
    <path d="M8 12h8" />
    <path d="M12 8v8" />
  </symbol>
  <symbol id="icon-coffee" viewBox="0 0 24 24" fill="none" stroke="currentColor" stroke-width="2" stroke-linecap="round" stroke-linejoin="round">
    <path d="M10 2v2"/>
    <path d="M14 2v2"/>
    <path d="M16 8a1 1 0 0 1 1 1v8a4 4 0 0 1-4 4H7a4 4 0 0 1-4-4V9a1 1 0 0 1 1-1h14a4 4 0 1 1 0 8h-1"/>
    <path d="M6 2v2"/>
  </symbol>
  <symbol id="icon-moon" viewBox="0 0 24 24" fill="none" stroke="currentColor" stroke-width="2" stroke-linecap="round" stroke-linejoin="round">
    <path d="M20.985 12.486a9 9 0 1 1-9.473-9.472c.405-.022.617.46.402.803a6 6 0 0 0 8.268 8.268c.344-.215.825-.004.803.401"/>
  </symbol>
  <symbol id="icon-heart-plus" viewBox="0 0 24 24" fill="none" stroke="currentColor" stroke-width="2" stroke-linecap="round" stroke-linejoin="round">
    <path d="m14.479 19.374-.971.939a2 2 0 0 1-3 .019L5 15c-1.5-1.5-3-3.2-3-5.5a5.5 5.5 0 0 1 9.591-3.676.56.56 0 0 0 .818 0A5.49 5.49 0 0 1 22 9.5a5.2 5.2 0 0 1-.219 1.49" />
    <path d="M15 15h6" />
    <path d="M18 12v6" />
  </symbol>
  <symbol id="icon-gift" viewBox="0 0 24 24" fill="none" stroke="currentColor" stroke-width="2" stroke-linecap="round" stroke-linejoin="round">
    <path d="M12 7v14"/>
    <path d="M20 11v8a2 2 0 0 1-2 2H6a2 2 0 0 1-2-2v-8"/>
    <path d="M7.5 7a1 1 0 0 1 0-5A4.8 8 0 0 1 12 7a4.8 8 0 0 1 4.5-5 1 1 0 0 1 0 5"/>
    <rect x="3" y="7" width="18" height="4" rx="1"/>
  </symbol>
  <symbol id="icon-chevron-up" viewBox="0 0 24 24" fill="none" stroke="currentColor" stroke-width="2" stroke-linecap="round" stroke-linejoin="round">
    <path d="m18 15-6-6-6 6" />
  </symbol>
  <symbol id="icon-chevron-down" viewBox="0 0 24 24" fill="none" stroke="currentColor" stroke-width="2" stroke-linecap="round" stroke-linejoin="round">
    <path d="m6 9 6 6 6-6" />
  </symbol>
  <symbol id="icon-book-up" viewBox="0 0 24 24" fill="none" stroke="currentColor" stroke-width="2" stroke-linecap="round" stroke-linejoin="round">
    <path d="M12 13V7" />
    <path d="M4 19.5v-15A2.5 2.5 0 0 1 6.5 2H19a1 1 0 0 1 1 1v18a1 1 0 0 1-1 1H6.5a1 1 0 0 1 0-5H20" />
    <path d="m9 10 3-3 3 3" />
  </symbol>
  <symbol id="icon-list-restart" viewBox="0 0 24 24" fill="none" stroke="currentColor" stroke-width="2" stroke-linecap="round" stroke-linejoin="round">
    <path d="M21 5H3" />
    <path d="M7 12H3" />
    <path d="M7 19H3" />
    <path d="M12 18a5 5 0 0 0 9-3 4.5 4.5 0 0 0-4.5-4.5c-1.33 0-2.54.54-3.41 1.41L11 14" />
    <path d="M11 10v4h4" />
  </symbol>
  <symbol id="icon-zap" viewBox="0 0 24 24" fill="none" stroke="currentColor" stroke-width="2" stroke-linecap="round" stroke-linejoin="round">
    <path d="M4 14a1 1 0 0 1-.78-1.63l9.9-10.2a.5.5 0 0 1 .86.46l-1.92 6.02A1 1 0 0 0 13 10h7a1 1 0 0 1 .78 1.63l-9.9 10.2a.5.5 0 0 1-.86-.46l1.92-6.02A1 1 0 0 0 11 14z" />
  </symbol>
  <symbol id="icon-shield" viewBox="0 0 24 24" fill="none" stroke="currentColor" stroke-width="2" stroke-linecap="round" stroke-linejoin="round">
    <path d="M20 13c0 5-3.5 7.5-7.66 8.95a1 1 0 0 1-.67-.01C7.5 20.5 4 18 4 13V6a1 1 0 0 1 1-1c2 0 4.5-1.2 6.24-2.72a1.17 1.17 0 0 1 1.52 0C14.51 3.81 17 5 19 5a1 1 0 0 1 1 1z" />
  </symbol>
  <symbol id="icon-menu" viewBox="0 0 24 24" fill="none" stroke="currentColor" stroke-width="2" stroke-linecap="round" stroke-linejoin="round">
    <path d="M4 5h16" />
    <path d="M4 12h16" />
    <path d="M4 19h16" />
  </symbol>
  <symbol id="icon-backpack" viewBox="0 0 24 24" fill="none" stroke="currentColor" stroke-width="2" stroke-linecap="round" stroke-linejoin="round">
    <path d="M4 10a4 4 0 0 1 4-4h8a4 4 0 0 1 4 4v10a2 2 0 0 1-2 2H6a2 2 0 0 1-2-2z" />
    <path d="M8 10h8" />
    <path d="M8 18h8" />
    <path d="M8 22v-6a2 2 0 0 1 2-2h4a2 2 0 0 1 2 2v6" />
    <path d="M9 6V4a2 2 0 0 1 2-2h2a2 2 0 0 1 2 2v2" />
  </symbol>
  <symbol id="icon-scroll-text" viewBox="0 0 24 24" fill="none" stroke="currentColor" stroke-width="2" stroke-linecap="round" stroke-linejoin="round">
    <path d="M15 12h-5" />
    <path d="M15 8h-5" />
    <path d="M19 17V5a2 2 0 0 0-2-2H4" />
    <path d="M8 21h12a2 2 0 0 0 2-2v-1a1 1 0 0 0-1-1H11a1 1 0 0 0-1 1v1a2 2 0 1 1-4 0V5a2 2 0 1 0-4 0v2a1 1 0 0 0 1 1h3" />
  </symbol>
  <symbol id="icon-log-in" viewBox="0 0 24 24" fill="none" stroke="currentColor" stroke-width="2" stroke-linecap="round" stroke-linejoin="round">
    <path d="m10 17 5-5-5-5" />
    <path d="M15 12H3" />
    <path d="M15 3h4a2 2 0 0 1 2 2v14a2 2 0 0 1-2 2h-4" />
  </symbol>
  <symbol id="icon-book-open" viewBox="0 0 24 24" fill="none" stroke="currentColor" stroke-width="2" stroke-linecap="round" stroke-linejoin="round">
    <path d="M12 7v14" />
    <path d="M3 18a1 1 0 0 1-1-1V4a1 1 0 0 1 1-1h5a4 4 0 0 1 4 4 4 4 0 0 1 4-4h5a1 1 0 0 1 1 1v13a1 1 0 0 1-1 1h-6a3 3 0 0 0-3 3 3 3 0 0 0-3-3z" />
  </symbol>
  <symbol id="icon-shield-plus" viewBox="0 0 24 24" fill="none" stroke="currentColor" stroke-width="2" stroke-linecap="round" stroke-linejoin="round">
    <path d="M20 13c0 5-3.5 7.5-7.66 8.95a1 1 0 0 1-.67-.01C7.5 20.5 4 18 4 13V6a1 1 0 0 1 1-1c2 0 4.5-1.2 6.24-2.72a1.17 1.17 0 0 1 1.52 0C14.51 3.81 17 5 19 5a1 1 0 0 1 1 1z" />
    <path d="M9 12h6" />
    <path d="M12 9v6" />
  </symbol>
  <!-- Resistance modifier icons -->
  <symbol id="icon-shield-half" viewBox="0 0 24 24" fill="none" stroke="currentColor" stroke-width="2" stroke-linecap="round" stroke-linejoin="round">
    <path d="M20 13c0 5-3.5 7.5-7.66 8.95a1 1 0 0 1-.67-.01C7.5 20.5 4 18 4 13V6a1 1 0 0 1 1-1c2 0 4.5-1.2 6.24-2.72a1.17 1.17 0 0 1 1.52 0C14.51 3.81 17 5 19 5a1 1 0 0 1 1 1z" />
    <path d="M12 22V2" />
  </symbol>
  <symbol id="icon-shield-off" viewBox="0 0 24 24" fill="none" stroke="currentColor" stroke-width="2" stroke-linecap="round" stroke-linejoin="round">
    <path d="m2 2 20 20" />
    <path d="M5 5a1 1 0 0 0-1 1v7c0 5 3.5 7.5 7.67 8.94a1 1 0 0 0 .67.01c2.35-.82 4.48-1.97 5.9-3.71" />
    <path d="M9.309 3.652A12.252 12.252 0 0 0 11.24 2.28a1.17 1.17 0 0 1 1.52 0C14.51 3.81 17 5 19 5a1 1 0 0 1 1 1v7a9.784 9.784 0 0 1-.08 1.264" />
  </symbol>
  <symbol id="icon-shield-check" viewBox="0 0 24 24" fill="none" stroke="currentColor" stroke-width="2" stroke-linecap="round" stroke-linejoin="round">
    <path d="M20 13c0 5-3.5 7.5-7.66 8.95a1 1 0 0 1-.67-.01C7.5 20.5 4 18 4 13V6a1 1 0 0 1 1-1c2 0 4.5-1.2 6.24-2.72a1.17 1.17 0 0 1 1.52 0C14.51 3.81 17 5 19 5a1 1 0 0 1 1 1z" />
    <path d="m9 12 2 2 4-4" />
  </symbol>
  <symbol id="icon-shield-minus" viewBox="0 0 24 24" fill="none" stroke="currentColor" stroke-width="2" stroke-linecap="round" stroke-linejoin="round">
    <path d="M20 13c0 5-3.5 7.5-7.66 8.95a1 1 0 0 1-.67-.01C7.5 20.5 4 18 4 13V6a1 1 0 0 1 1-1c2 0 4.5-1.2 6.24-2.72a1.17 1.17 0 0 1 1.52 0C14.51 3.81 17 5 19 5a1 1 0 0 1 1 1z" />
    <path d="M9 12h6" />
  </symbol>
  <!-- Damage type icons -->
  <symbol id="icon-droplets" viewBox="0 0 24 24" fill="none" stroke="currentColor" stroke-width="2" stroke-linecap="round" stroke-linejoin="round">
    <path d="M7 16.3c2.2 0 4-1.83 4-4.05 0-1.16-.57-2.26-1.71-3.19S7.29 6.75 7 5.3c-.29 1.45-1.14 2.84-2.29 3.76S3 11.1 3 12.25c0 2.22 1.8 4.05 4 4.05z" />
    <path d="M12.56 6.6A10.97 10.97 0 0 0 14 3.02c.5 2.5 2 4.9 4 6.5s3 3.5 3 5.5a6.98 6.98 0 0 1-11.91 4.97" />
  </symbol>
  <symbol id="icon-gavel" viewBox="0 0 24 24" fill="none" stroke="currentColor" stroke-width="2" stroke-linecap="round" stroke-linejoin="round">
    <path d="m14 13-8.381 8.38a1 1 0 0 1-3.001-3l8.384-8.381" />
    <path d="m16 16 6-6" />
    <path d="m21.5 10.5-8-8" />
    <path d="m8 8 6-6" />
    <path d="m8.5 7.5 8 8" />
  </symbol>
  <symbol id="icon-snowflake" viewBox="0 0 24 24" fill="none" stroke="currentColor" stroke-width="2" stroke-linecap="round" stroke-linejoin="round">
    <path d="m10 20-1.25-2.5L6 18" />
    <path d="M10 4 8.75 6.5 6 6" />
    <path d="m14 20 1.25-2.5L18 18" />
    <path d="m14 4 1.25 2.5L18 6" />
    <path d="m17 21-3-6h-4" />
    <path d="m17 3-3 6 1.5 3" />
    <path d="M2 12h6.5L10 9" />
    <path d="m20 10-1.5 2 1.5 2" />
    <path d="M22 12h-6.5L14 15" />
    <path d="m4 10 1.5 2L4 14" />
    <path d="m7 21 3-6-1.5-3" />
    <path d="m7 3 3 6h4" />
  </symbol>
  <symbol id="icon-flame" viewBox="0 0 24 24" fill="none" stroke="currentColor" stroke-width="2" stroke-linecap="round" stroke-linejoin="round">
    <path d="M12 3q1 4 4 6.5t3 5.5a1 1 0 0 1-14 0 5 5 0 0 1 1-3 1 1 0 0 0 5 0c0-2-1.5-3-1.5-5q0-2 2.5-4" />
  </symbol>
  <symbol id="icon-sparkles" viewBox="0 0 24 24" fill="none" stroke="currentColor" stroke-width="2" stroke-linecap="round" stroke-linejoin="round">
    <path d="M11.017 2.814a1 1 0 0 1 1.966 0l1.051 5.558a2 2 0 0 0 1.594 1.594l5.558 1.051a1 1 0 0 1 0 1.966l-5.558 1.051a2 2 0 0 0-1.594 1.594l-1.051 5.558a1 1 0 0 1-1.966 0l-1.051-5.558a2 2 0 0 0-1.594-1.594l-5.558-1.051a1 1 0 0 1 0-1.966l5.558-1.051a2 2 0 0 0 1.594-1.594z" />
    <path d="M20 2v4" />
    <path d="M22 4h-4" />
    <circle cx="4" cy="20" r="2" />
  </symbol>
  <symbol id="icon-skull" viewBox="0 0 24 24" fill="none" stroke="currentColor" stroke-width="2" stroke-linecap="round" stroke-linejoin="round">
    <path d="m12.5 17-.5-1-.5 1h1z" />
    <path d="M15 22a1 1 0 0 0 1-1v-1a2 2 0 0 0 1.56-3.25 8 8 0 1 0-11.12 0A2 2 0 0 0 8 20v1a1 1 0 0 0 1 1z" />
    <circle cx="15" cy="12" r="1" />
    <circle cx="9" cy="12" r="1" />
  </symbol>
  <symbol id="icon-bow-arrow" viewBox="0 0 24 24" fill="none" stroke="currentColor" stroke-width="2" stroke-linecap="round" stroke-linejoin="round">
    <path d="M17 3h4v4" />
    <path d="M18.575 11.082a13 13 0 0 1 1.048 9.027 1.17 1.17 0 0 1-1.914.597L14 17" />
    <path d="M7 10 3.29 6.29a1.17 1.17 0 0 1 .6-1.91 13 13 0 0 1 9.03 1.05" />
    <path d="M7 14a1.7 1.7 0 0 0-1.207.5l-2.646 2.646A.5.5 0 0 0 3.5 18H5a1 1 0 0 1 1 1v1.5a.5.5 0 0 0 .854.354L9.5 18.207A1.7 1.7 0 0 0 10 17v-2a1 1 0 0 0-1-1z" />
    <path d="M9.707 14.293 21 3" />
  </symbol>
  <symbol id="icon-flask-round" viewBox="0 0 24 24" fill="none" stroke="currentColor" stroke-width="2" stroke-linecap="round" stroke-linejoin="round">
    <path d="M10 2v6.292a7 7 0 1 0 4 0V2" />
    <path d="M5 15h14" />
    <path d="M8.5 2h7" />
  </symbol>
  <symbol id="icon-brain" viewBox="0 0 24 24" fill="none" stroke="currentColor" stroke-width="2" stroke-linecap="round" stroke-linejoin="round">
    <path d="M12 18V5" />
    <path d="M15 13a4.17 4.17 0 0 1-3-4 4.17 4.17 0 0 1-3 4" />
    <path d="M17.598 6.5A3 3 0 1 0 12 5a3 3 0 1 0-5.598 1.5" />
    <path d="M17.997 5.125a4 4 0 0 1 2.526 5.77" />
    <path d="M18 18a4 4 0 0 0 2-7.464" />
    <path d="M19.967 17.483A4 4 0 1 1 12 18a4 4 0 1 1-7.967-.517" />
    <path d="M6 18a4 4 0 0 1-2-7.464" />
    <path d="M6.003 5.125a4 4 0 0 0-2.526 5.77" />
  </symbol>
  <symbol id="icon-sun" viewBox="0 0 24 24" fill="none" stroke="currentColor" stroke-width="2" stroke-linecap="round" stroke-linejoin="round">
    <circle cx="12" cy="12" r="4" />
    <path d="M12 2v2" />
    <path d="M12 20v2" />
    <path d="m4.93 4.93 1.41 1.41" />
    <path d="m17.66 17.66 1.41 1.41" />
    <path d="M2 12h2" />
    <path d="M20 12h2" />
    <path d="m6.34 17.66-1.41 1.41" />
    <path d="m19.07 4.93-1.41 1.41" />
  </symbol>
  <symbol id="icon-sword" viewBox="0 0 24 24" fill="none" stroke="currentColor" stroke-width="2" stroke-linecap="round" stroke-linejoin="round">
    <path d="m11 19-6-6" />
    <path d="m5 21-2-2" />
    <path d="m8 16-4 4" />
    <path d="M9.5 17.5 21 6V3h-3L6.5 14.5" />
  </symbol>
  <symbol id="icon-cloud-lightning" viewBox="0 0 24 24" fill="none" stroke="currentColor" stroke-width="2" stroke-linecap="round" stroke-linejoin="round">
    <path d="M6 16.326A7 7 0 1 1 15.71 8h1.79a4.5 4.5 0 0 1 .5 8.973" />
    <path d="m13 12-3 5h4l-3 5" />
  </symbol>
</svg>
